<svg xmlns="http://www.w3.org/2000/svg" width="118" height="40" viewBox="0 0 118 40">
    <g fill="#FFF" fill-rule="nonzero">
        <path d="M29.324 16.442c.205-1.406.247-2.83.124-4.246H18.265a4.3 4.3 0 0 0-4.795-1.671 4.237 4.237 0 0 0-3.022 4.045c0 1.859 1.226 3.5 3.022 4.046a4.3 4.3 0 0 0 4.795-1.672h5.925c-1.074 4.214-4.855 7.203-9.246 7.308-4.39.106-8.314-2.699-9.593-6.857-1.278-4.157.4-8.649 4.107-10.982a9.86 9.86 0 0 1 11.792.973l3.227-3.705c-5.622-4.919-14.083-4.863-19.639.128C-.718 8.801-1.588 17.13 2.819 23.14l11.932 16.576 12.13-16.927a14.385 14.385 0 0 0 1.94-3.996s.053-.161.128-.453c.125-.462.227-.93.304-1.403 0 0 0-.046.018-.123s0-.08 0-.123l.053-.249z"/>
        <path d="M50.351 28.238h3.978l-.124.75h-1.414v4.834h-1.01v-4.834h-1.43v-.75zm4.752 3.308v2.276h-.955v-2.08a3.875 3.875 0 0 0-.226-1.374 1.432 1.432 0 0 0-.2-.387l.763-.297.16.222c.117.193.2.404.245.625a1.22 1.22 0 0 1 1.21-.89c.123.002.245.019.363.05l.16.04-.268.937c-.035 0-.07-.025-.111-.04a.869.869 0 0 0-.319-.05c-.385.003-.764.374-.822.968zm2.759-3.102a.531.531 0 0 1-.157.427.554.554 0 0 1-.433.157.544.544 0 0 1-.409-.156.522.522 0 0 1-.154-.403.534.534 0 0 1 .153-.431.557.557 0 0 1 .436-.162.538.538 0 0 1 .415.157c.109.11.163.26.149.411zm-1.074 4.479v-3.208h.956v3.123c0 .256.076.313.235.313a.737.737 0 0 0 .144 0 .325.325 0 0 0 .076 0l.099.6a.593.593 0 0 1-.15.059 1.46 1.46 0 0 1-.455.059.872.872 0 0 1-.678-.266.836.836 0 0 1-.227-.68zm2.29-3.233c.072.075.134.158.185.247.125.223.205.466.236.718.194-.662.58-1.008 1.312-1.008 1.05 0 1.548.809 1.548 2.045 0 1.237-.825 2.186-2.01 2.186a6.091 6.091 0 0 1-.656-.05v1.659l-.956.165v-3.91a3.874 3.874 0 0 0-.21-1.368 1.529 1.529 0 0 0-.204-.387l.755-.297zm.615 2.187v1.249c.178.046.36.074.545.084.834 0 1.076-.603 1.076-1.427 0-.759-.057-1.452-.662-1.452-.526-.007-.924.752-.946 1.546h-.013zm5.316-2.096c.136.045.27.097.4.156l-.292.653c-.108-.05-.22-.094-.319-.134a2.238 2.238 0 0 0-.656-.14c-.26 0-.471.124-.471.361 0 .313.236.556.697.728.698.265 1.128.562 1.128 1.271 0 .625-.529 1.227-1.472 1.227A3.16 3.16 0 0 1 63 33.707a3.593 3.593 0 0 1-.471-.197l.318-.703c.125.073.253.14.385.2.223.11.465.177.714.197.398 0 .573-.166.573-.422s-.21-.518-.615-.677c-.866-.313-1.21-.684-1.21-1.334s.615-1.155 1.42-1.155c.31.003.618.059.908.165h-.012zm7.542 1.936c-.023-.287-.032-.855-.042-1.393-.2.544-.436 1.137-.529 1.368l-.933 2.13h-.716l-.956-2.105a27.24 27.24 0 0 1-.564-1.418c0 .578-.031 1.172-.031 1.393l-.086 2.13h-.956l.319-5.602h.834l1.436 3.491.354.856c.111-.288.23-.594.354-.856l1.43-3.466v-.025h.793l.318 5.602h-.955l-.07-2.105zm5.095.116c-.014.465.055.929.204 1.37.047.141.118.272.21.388l-.767.312a1.675 1.675 0 0 1-.427-1.006c-.11.612-.675 1.04-1.306.99-1.05 0-1.548-.808-1.548-2.045 0-1.236.825-2.186 2.013-2.186.356.014.71.055 1.058.125.184.034.372.075.563.116v1.936zm-.955-.247v-1.18a3.314 3.314 0 0 0-.548-.09c-.834 0-1.076.602-1.076 1.426 0 .76.057 1.462.662 1.462.535 0 .95-.81.95-1.618h.012zm4.777 2.302a1.675 1.675 0 0 1-.427-1.006c-.109.611-.675 1.04-1.305.99-1.051 0-1.548-.809-1.548-2.045 0-1.237.825-2.186 2.01-2.186.22.003.439.023.656.059v-1.874l.955.166v3.825c-.014.465.055.93.204 1.371.05.139.121.27.21.387l-.755.313zm-.614-2.302v-1.18a3.214 3.214 0 0 0-.545-.09c-.834 0-1.076.602-1.076 1.426 0 .76.057 1.452.662 1.452.542 0 .952-.79.952-1.608h.007zm3.535-1.97c1 0 1.405.512 1.405 1.17 0 .8-.927 1.459-2.408 1.484.067.506.27.937.927.937a2.81 2.81 0 0 0 .78-.14c.14-.041.28-.09.414-.147l.252.593c-.496.24-1.04.37-1.593.378-1.306 0-1.819-.8-1.819-2.011.007-1.49.876-2.264 2.036-2.264h.006zM83.36 31.67c1.051-.025 1.465-.502 1.465-.883a.475.475 0 0 0-.135-.375.496.496 0 0 0-.377-.147c-.749 0-.934.728-.96 1.405h.007zm4.746-3.435h3.398v.75h-2.379v1.561h1.959l-.128.75h-1.83v1.783h2.506v.75h-3.504l-.022-5.594zm7.22 3.598c-.013.465.055.928.2 1.37.05.14.12.27.211.388l-.764.312a1.708 1.708 0 0 1-.195-.256 1.715 1.715 0 0 1-.235-.75 1.219 1.219 0 0 1-1.303.99c-1.051 0-1.548-.808-1.548-2.045 0-1.236.825-2.186 2.01-2.186.356.013.711.055 1.06.125.185.034.37.075.564.116v1.936zm-.955-.247v-1.18a3.243 3.243 0 0 0-.548-.09c-.831 0-1.077.602-1.077 1.426 0 .76.06 1.462.666 1.462.541 0 .959-.81.959-1.618zm3.901-1.805c.138.045.273.097.405.156l-.293.653c-.112-.05-.22-.094-.319-.134a2.238 2.238 0 0 0-.656-.14c-.261 0-.471.124-.471.361 0 .313.235.556.697.728.698.265 1.128.562 1.128 1.271 0 .625-.529 1.227-1.472 1.227a3.16 3.16 0 0 1-1.025-.196 3.593 3.593 0 0 1-.472-.197l.319-.703c.127.075.261.14.388.2.223.11.465.177.714.197.398 0 .573-.166.573-.422s-.21-.518-.615-.677c-.866-.313-1.21-.684-1.21-1.334s.615-1.155 1.42-1.155c.302.005.6.06.883.165h.006zm3.618 3.282a1.55 1.55 0 0 1-1.446.81 1.189 1.189 0 0 1-.875-.313c-.264-.31-.39-.71-.354-1.112v-2.739h.956v2.705c0 .462.15.743.544.743.395 0 .937-.456 1.003-1.156V29.71h.99l-.04 2.433c-.026.653.26 1.071.26 1.73 0 1.221-.757 1.818-1.91 1.724a3.37 3.37 0 0 1-.924-.187 2.902 2.902 0 0 1-.404-.15l.242-.719a3.88 3.88 0 0 0 1.095.313c.956.09 1.179-.775.867-1.724l-.004-.066zm3.103.216a.58.58 0 0 1-.175.454.605.605 0 0 1-.462.17.595.595 0 0 1-.452-.176.571.571 0 0 1-.163-.448.58.58 0 0 1 .174-.454.605.605 0 0 1 .463-.17c.17-.011.335.053.452.173.117.12.174.285.156.45h.007zm-1.036-5.04h1.086l-.242 3.769h-.844v-3.77z" opacity=".495"/>
        <path d="M48.207 22.777c.01-.124 0-.249-.029-.37-.824 1.485-2.428 2.309-4.484 2.309-4.484 0-6.364-3.56-6.364-8.95 0-5.526 2.51-9.485 7.901-9.485 2.374 0 4.004.931 4.94 1.9l-1.592 2.021a5.373 5.373 0 0 0-3.71-1.46c-3.043 0-4.083 3.028-4.083 6.745 0 4.013.986 6.72 3.5 6.72 1.655 0 3.552-1.539 3.552-4.037v-2.417h3.15v8.031c0 4.304-2.565 5.577-4.751 6.65L44.98 28.31c2.937-1.356 2.991-3.081 3.125-4.2.056-.442.09-.887.102-1.333zm4.675-1.168V5.775l3.07-.558v16.097c0 .824.319 1.09.936 1.09.332.006.664-.03.987-.108l.417-.095.372 1.938-.773.238a8.178 8.178 0 0 1-2.056.24c-2.024-.006-2.953-1.228-2.953-3.008zm17.99-3.876c0 3.955-2.002 7.036-6.085 7.036s-5.859-2.568-5.859-6.745c0-4.012 2.002-7.065 6.085-7.065s5.852 2.55 5.852 6.774h.007zm-8.621.025c0 2.628.534 4.75 2.803 4.75 2.027 0 2.508-1.963 2.508-4.516 0-2.653-.531-4.778-2.8-4.778-2.037.003-2.518 1.995-2.518 4.554l.007-.01zm10.221-11.98l3.071-.532v8.088c.637-1.46 1.735-2.258 3.549-2.258 3.338 0 4.913 2.603 4.913 6.587 0 4.038-2.616 7.015-6.364 7.015a20.594 20.594 0 0 1-3.39-.374 19.6 19.6 0 0 1-1.763-.4l-.016-18.126zm3.071 12.645v3.822a8.868 8.868 0 0 0 1.735.266c2.641 0 3.418-1.938 3.418-4.595 0-2.441-.188-4.7-2.11-4.7-1.741 0-3.049 2.604-3.049 5.207h.006zm15.686-7.464c3.183 0 4.456 1.647 4.456 3.772 0 2.574-2.935 4.7-7.638 4.781.213 1.619.856 2.974 2.937 2.974a8.838 8.838 0 0 0 2.482-.453c.446-.13.883-.29 1.308-.478l.802 1.9a12.045 12.045 0 0 1-5.018 1.223c-4.137 0-5.767-2.578-5.767-6.483.007-4.74 2.81-7.236 6.438-7.236zm-3.255 6.612c3.338-.079 4.643-1.618 4.643-2.85 0-1.036-.665-1.675-1.626-1.675-2.35.01-2.938 2.375-3.017 4.525zm8.248 6.932v-1.83l5.872-9.244c-.907.054-1.789.08-2.67.08h-2.626l-.372-2.218h9.229v1.834l-5.767 9.244c.774-.054 1.55-.08 2.349-.08h3.657v2.217l-9.672-.003zm16.52-13.544c3.182 0 4.455 1.647 4.455 3.772 0 2.574-2.937 4.7-7.637 4.781.213 1.619.856 2.974 2.937 2.974a8.838 8.838 0 0 0 2.482-.453c.446-.132.883-.291 1.308-.478l.799 1.9c-.482.24-.98.445-1.493.611-1.13.399-2.32.61-3.52.624-4.136 0-5.766-2.578-5.766-6.482.003-4.754 2.807-7.25 6.435-7.25zm-3.256 6.612c3.336-.079 4.643-1.618 4.643-2.85 0-1.036-.665-1.675-1.626-1.675-2.339.01-2.937 2.375-3.017 4.525z"/>
    </g>
</svg>
